<mxfile host="app.diagrams.net" agent="Mozilla/5.0 (Windows NT 10.0; Win64; x64; rv:136.0) Gecko/20100101 Firefox/136.0" version="26.1.1">
  <diagram id="C5RBs43oDa-KdzZeNtuy" name="Page-1">
    <mxGraphModel dx="2850" dy="2361" grid="1" gridSize="10" guides="1" tooltips="1" connect="1" arrows="1" fold="1" page="1" pageScale="1" pageWidth="827" pageHeight="1169" math="0" shadow="0">
      <root>
        <mxCell id="WIyWlLk6GJQsqaUBKTNV-0" />
        <mxCell id="WIyWlLk6GJQsqaUBKTNV-1" parent="WIyWlLk6GJQsqaUBKTNV-0" />
        <mxCell id="phbMMFh-26lDou9REZHB-16" style="edgeStyle=none;curved=1;rounded=0;orthogonalLoop=1;jettySize=auto;html=1;entryX=0;entryY=1;entryDx=0;entryDy=0;fontSize=12;startSize=8;endSize=8;" parent="WIyWlLk6GJQsqaUBKTNV-1" source="phbMMFh-26lDou9REZHB-0" target="phbMMFh-26lDou9REZHB-13" edge="1">
          <mxGeometry relative="1" as="geometry" />
        </mxCell>
        <mxCell id="phbMMFh-26lDou9REZHB-0" value="Aspect (Alfresco) (permet d&#39;éviter de répeter les mêmes metadata sur plusieurs listes de documents)" style="rounded=1;whiteSpace=wrap;html=1;strokeColor=#0095db;strokeWidth=3;arcSize=15;fontFamily=Poppins;fontSource=https%3A%2F%2Ffonts.googleapis.com%2Fcss%3Ffamily%3DPoppins;fontSize=16;fontColor=#002058;fontStyle=0" parent="WIyWlLk6GJQsqaUBKTNV-1" vertex="1">
          <mxGeometry x="490" y="290" width="280" height="60" as="geometry" />
        </mxCell>
        <mxCell id="phbMMFh-26lDou9REZHB-14" style="edgeStyle=none;curved=1;rounded=0;orthogonalLoop=1;jettySize=auto;html=1;fontSize=12;startSize=8;endSize=8;" parent="WIyWlLk6GJQsqaUBKTNV-1" source="phbMMFh-26lDou9REZHB-3" target="phbMMFh-26lDou9REZHB-13" edge="1">
          <mxGeometry relative="1" as="geometry" />
        </mxCell>
        <mxCell id="phbMMFh-26lDou9REZHB-3" value="Modèle (Alfresco)" style="rounded=1;whiteSpace=wrap;html=1;strokeColor=#0095db;strokeWidth=3;arcSize=15;fontFamily=Poppins;fontSource=https%3A%2F%2Ffonts.googleapis.com%2Fcss%3Ffamily%3DPoppins;fontSize=16;fontColor=#002058;fontStyle=0" parent="WIyWlLk6GJQsqaUBKTNV-1" vertex="1">
          <mxGeometry x="490" y="110" width="120" height="60" as="geometry" />
        </mxCell>
        <mxCell id="phbMMFh-26lDou9REZHB-8" style="edgeStyle=none;curved=1;rounded=0;orthogonalLoop=1;jettySize=auto;html=1;entryX=0;entryY=0.5;entryDx=0;entryDy=0;fontSize=12;startSize=8;endSize=8;" parent="WIyWlLk6GJQsqaUBKTNV-1" source="phbMMFh-26lDou9REZHB-4" target="phbMMFh-26lDou9REZHB-0" edge="1">
          <mxGeometry relative="1" as="geometry" />
        </mxCell>
        <mxCell id="phbMMFh-26lDou9REZHB-12" style="edgeStyle=none;curved=1;rounded=0;orthogonalLoop=1;jettySize=auto;html=1;entryX=0.5;entryY=1;entryDx=0;entryDy=0;fontSize=12;startSize=8;endSize=8;" parent="WIyWlLk6GJQsqaUBKTNV-1" source="phbMMFh-26lDou9REZHB-4" target="phbMMFh-26lDou9REZHB-5" edge="1">
          <mxGeometry relative="1" as="geometry" />
        </mxCell>
        <mxCell id="phbMMFh-26lDou9REZHB-40" style="edgeStyle=none;curved=1;rounded=0;orthogonalLoop=1;jettySize=auto;html=1;fontSize=12;startSize=8;endSize=8;" parent="WIyWlLk6GJQsqaUBKTNV-1" source="phbMMFh-26lDou9REZHB-4" target="phbMMFh-26lDou9REZHB-29" edge="1">
          <mxGeometry relative="1" as="geometry" />
        </mxCell>
        <mxCell id="C5AE95VLdBe2y1BJVzsT-7" style="edgeStyle=none;curved=1;rounded=0;orthogonalLoop=1;jettySize=auto;html=1;fontSize=12;startSize=8;endSize=8;" parent="WIyWlLk6GJQsqaUBKTNV-1" source="phbMMFh-26lDou9REZHB-4" target="C5AE95VLdBe2y1BJVzsT-5" edge="1">
          <mxGeometry relative="1" as="geometry" />
        </mxCell>
        <mxCell id="phbMMFh-26lDou9REZHB-4" value="&lt;div&gt;Document&lt;/div&gt;" style="rounded=1;whiteSpace=wrap;html=1;strokeColor=#00AA9B;strokeWidth=3;arcSize=19;fontFamily=Poppins;fontSource=https%3A%2F%2Ffonts.googleapis.com%2Fcss%3Ffamily%3DPoppins;fontSize=16;fontColor=#002058;fontStyle=0;labelBackgroundColor=none;labelBorderColor=none;" parent="WIyWlLk6GJQsqaUBKTNV-1" vertex="1">
          <mxGeometry x="120" y="290" width="280" height="60" as="geometry" />
        </mxCell>
        <mxCell id="phbMMFh-26lDou9REZHB-7" style="edgeStyle=none;curved=1;rounded=0;orthogonalLoop=1;jettySize=auto;html=1;entryX=0;entryY=0.5;entryDx=0;entryDy=0;fontSize=12;startSize=8;endSize=8;" parent="WIyWlLk6GJQsqaUBKTNV-1" source="phbMMFh-26lDou9REZHB-5" target="phbMMFh-26lDou9REZHB-3" edge="1">
          <mxGeometry relative="1" as="geometry" />
        </mxCell>
        <mxCell id="phbMMFh-26lDou9REZHB-11" style="edgeStyle=none;curved=1;rounded=0;orthogonalLoop=1;jettySize=auto;html=1;fontSize=12;startSize=8;endSize=8;" parent="WIyWlLk6GJQsqaUBKTNV-1" source="phbMMFh-26lDou9REZHB-5" target="phbMMFh-26lDou9REZHB-10" edge="1">
          <mxGeometry relative="1" as="geometry" />
        </mxCell>
        <mxCell id="phbMMFh-26lDou9REZHB-17" style="edgeStyle=none;curved=1;rounded=0;orthogonalLoop=1;jettySize=auto;html=1;fontSize=12;startSize=8;endSize=8;" parent="WIyWlLk6GJQsqaUBKTNV-1" source="phbMMFh-26lDou9REZHB-5" target="phbMMFh-26lDou9REZHB-15" edge="1">
          <mxGeometry relative="1" as="geometry" />
        </mxCell>
        <mxCell id="phbMMFh-26lDou9REZHB-19" value="1..n" style="edgeLabel;html=1;align=center;verticalAlign=middle;resizable=0;points=[];fontSize=12;" parent="phbMMFh-26lDou9REZHB-17" vertex="1" connectable="0">
          <mxGeometry x="-0.4" y="-1" relative="1" as="geometry">
            <mxPoint x="13" y="11" as="offset" />
          </mxGeometry>
        </mxCell>
        <mxCell id="phbMMFh-26lDou9REZHB-20" value="1..1" style="edgeLabel;html=1;align=center;verticalAlign=middle;resizable=0;points=[];fontSize=12;" parent="phbMMFh-26lDou9REZHB-17" vertex="1" connectable="0">
          <mxGeometry x="0.4462" y="2" relative="1" as="geometry">
            <mxPoint y="8" as="offset" />
          </mxGeometry>
        </mxCell>
        <mxCell id="uQfEkvKlNakl6JKJITbp-3" style="edgeStyle=none;curved=1;rounded=0;orthogonalLoop=1;jettySize=auto;html=1;entryX=0;entryY=1;entryDx=0;entryDy=0;fontSize=12;startSize=8;endSize=8;" parent="WIyWlLk6GJQsqaUBKTNV-1" source="phbMMFh-26lDou9REZHB-5" target="uQfEkvKlNakl6JKJITbp-2" edge="1">
          <mxGeometry relative="1" as="geometry" />
        </mxCell>
        <mxCell id="phbMMFh-26lDou9REZHB-5" value="Type de document" style="rounded=1;whiteSpace=wrap;html=1;strokeColor=#00AA9B;strokeWidth=3;arcSize=19;fontFamily=Poppins;fontSource=https%3A%2F%2Ffonts.googleapis.com%2Fcss%3Ffamily%3DPoppins;fontSize=16;fontColor=#002058;fontStyle=0;labelBackgroundColor=none;labelBorderColor=none;" parent="WIyWlLk6GJQsqaUBKTNV-1" vertex="1">
          <mxGeometry x="120" y="110" width="280" height="60" as="geometry" />
        </mxCell>
        <mxCell id="phbMMFh-26lDou9REZHB-53" style="edgeStyle=none;curved=1;rounded=0;orthogonalLoop=1;jettySize=auto;html=1;entryX=0.5;entryY=1;entryDx=0;entryDy=0;fontSize=12;startSize=8;endSize=8;" parent="WIyWlLk6GJQsqaUBKTNV-1" source="phbMMFh-26lDou9REZHB-10" target="phbMMFh-26lDou9REZHB-52" edge="1">
          <mxGeometry relative="1" as="geometry" />
        </mxCell>
        <mxCell id="phbMMFh-26lDou9REZHB-10" value="Metadonnée" style="rounded=1;whiteSpace=wrap;html=1;strokeColor=#00AA9B;strokeWidth=3;arcSize=19;fontFamily=Poppins;fontSource=https%3A%2F%2Ffonts.googleapis.com%2Fcss%3Ffamily%3DPoppins;fontSize=16;fontColor=#002058;fontStyle=0;labelBackgroundColor=none;labelBorderColor=none;" parent="WIyWlLk6GJQsqaUBKTNV-1" vertex="1">
          <mxGeometry x="120" y="-10" width="280" height="60" as="geometry" />
        </mxCell>
        <mxCell id="phbMMFh-26lDou9REZHB-13" value="Metadonnée (Alfresco)" style="rounded=1;whiteSpace=wrap;html=1;strokeColor=#0095db;strokeWidth=3;arcSize=15;fontFamily=Poppins;fontSource=https%3A%2F%2Ffonts.googleapis.com%2Fcss%3Ffamily%3DPoppins;fontSize=16;fontColor=#002058;fontStyle=0" parent="WIyWlLk6GJQsqaUBKTNV-1" vertex="1">
          <mxGeometry x="800" y="170" width="120" height="60" as="geometry" />
        </mxCell>
        <mxCell id="uQfEkvKlNakl6JKJITbp-5" style="edgeStyle=none;curved=1;rounded=0;orthogonalLoop=1;jettySize=auto;html=1;entryX=1;entryY=0.5;entryDx=0;entryDy=0;fontSize=12;startSize=8;endSize=8;" parent="WIyWlLk6GJQsqaUBKTNV-1" source="phbMMFh-26lDou9REZHB-15" target="phbMMFh-26lDou9REZHB-35" edge="1">
          <mxGeometry relative="1" as="geometry" />
        </mxCell>
        <mxCell id="phbMMFh-26lDou9REZHB-15" value="Rubrique (plan de classement) - 1 rubrique = 1 type de document" style="rounded=1;whiteSpace=wrap;html=1;strokeColor=#00AA9B;strokeWidth=3;arcSize=15;fontFamily=Poppins;fontSource=https%3A%2F%2Ffonts.googleapis.com%2Fcss%3Ffamily%3DPoppins;fontSize=16;fontColor=#002058;fontStyle=0;labelBackgroundColor=none;labelBorderColor=none;" parent="WIyWlLk6GJQsqaUBKTNV-1" vertex="1">
          <mxGeometry x="-350" y="110" width="340" height="60" as="geometry" />
        </mxCell>
        <mxCell id="phbMMFh-26lDou9REZHB-18" style="edgeStyle=none;curved=1;rounded=0;orthogonalLoop=1;jettySize=auto;html=1;fontSize=12;startSize=8;endSize=8;" parent="WIyWlLk6GJQsqaUBKTNV-1" source="phbMMFh-26lDou9REZHB-15" target="phbMMFh-26lDou9REZHB-15" edge="1">
          <mxGeometry relative="1" as="geometry">
            <Array as="points">
              <mxPoint x="-20" y="70" />
            </Array>
          </mxGeometry>
        </mxCell>
        <mxCell id="phbMMFh-26lDou9REZHB-44" value="sous-rubrique" style="edgeLabel;html=1;align=center;verticalAlign=middle;resizable=0;points=[];fontSize=12;" parent="phbMMFh-26lDou9REZHB-18" vertex="1" connectable="0">
          <mxGeometry x="0.0908" y="1" relative="1" as="geometry">
            <mxPoint x="-9" y="-9" as="offset" />
          </mxGeometry>
        </mxCell>
        <mxCell id="phbMMFh-26lDou9REZHB-21" value="1..1" style="edgeLabel;html=1;align=center;verticalAlign=middle;resizable=0;points=[];fontSize=12;" parent="WIyWlLk6GJQsqaUBKTNV-1" vertex="1" connectable="0">
          <mxGeometry x="30" y="160" as="geometry">
            <mxPoint x="255" y="18" as="offset" />
          </mxGeometry>
        </mxCell>
        <mxCell id="phbMMFh-26lDou9REZHB-22" value="1..n" style="edgeLabel;html=1;align=center;verticalAlign=middle;resizable=0;points=[];fontSize=12;" parent="WIyWlLk6GJQsqaUBKTNV-1" vertex="1" connectable="0">
          <mxGeometry x="104" y="160" as="geometry">
            <mxPoint x="177" y="117" as="offset" />
          </mxGeometry>
        </mxCell>
        <mxCell id="phbMMFh-26lDou9REZHB-23" value="1..n" style="edgeLabel;html=1;align=center;verticalAlign=middle;resizable=0;points=[];fontSize=12;" parent="WIyWlLk6GJQsqaUBKTNV-1" vertex="1" connectable="0">
          <mxGeometry x="104" y="160" as="geometry">
            <mxPoint x="173" y="-100" as="offset" />
          </mxGeometry>
        </mxCell>
        <mxCell id="phbMMFh-26lDou9REZHB-24" value="0..n" style="edgeLabel;html=1;align=center;verticalAlign=middle;resizable=0;points=[];fontSize=12;" parent="WIyWlLk6GJQsqaUBKTNV-1" vertex="1" connectable="0">
          <mxGeometry x="104" y="160" as="geometry">
            <mxPoint x="169" y="-60" as="offset" />
          </mxGeometry>
        </mxCell>
        <mxCell id="phbMMFh-26lDou9REZHB-25" value="1..1" style="edgeLabel;html=1;align=center;verticalAlign=middle;resizable=0;points=[];fontSize=12;" parent="WIyWlLk6GJQsqaUBKTNV-1" vertex="1" connectable="0">
          <mxGeometry x="36" y="160" as="geometry">
            <mxPoint x="439" y="-32" as="offset" />
          </mxGeometry>
        </mxCell>
        <mxCell id="phbMMFh-26lDou9REZHB-26" value="0..n" style="text;whiteSpace=wrap;html=1;" parent="WIyWlLk6GJQsqaUBKTNV-1" vertex="1">
          <mxGeometry x="400" y="120" width="50" height="40" as="geometry" />
        </mxCell>
        <mxCell id="phbMMFh-26lDou9REZHB-27" value="0..1" style="edgeLabel;html=1;align=center;verticalAlign=middle;resizable=0;points=[];fontSize=12;" parent="WIyWlLk6GJQsqaUBKTNV-1" vertex="1" connectable="0">
          <mxGeometry x="36" y="160" as="geometry">
            <mxPoint x="429" y="146" as="offset" />
          </mxGeometry>
        </mxCell>
        <mxCell id="phbMMFh-26lDou9REZHB-28" value="0..n" style="text;whiteSpace=wrap;html=1;" parent="WIyWlLk6GJQsqaUBKTNV-1" vertex="1">
          <mxGeometry x="400" y="300" width="30" height="20" as="geometry" />
        </mxCell>
        <mxCell id="phbMMFh-26lDou9REZHB-46" style="edgeStyle=none;curved=1;rounded=0;orthogonalLoop=1;jettySize=auto;html=1;fontSize=12;startSize=8;endSize=8;" parent="WIyWlLk6GJQsqaUBKTNV-1" source="phbMMFh-26lDou9REZHB-29" target="phbMMFh-26lDou9REZHB-45" edge="1">
          <mxGeometry relative="1" as="geometry" />
        </mxCell>
        <mxCell id="uQfEkvKlNakl6JKJITbp-14" style="edgeStyle=none;curved=1;rounded=0;orthogonalLoop=1;jettySize=auto;html=1;fontSize=12;startSize=8;endSize=8;" parent="WIyWlLk6GJQsqaUBKTNV-1" source="phbMMFh-26lDou9REZHB-29" target="uQfEkvKlNakl6JKJITbp-13" edge="1">
          <mxGeometry relative="1" as="geometry" />
        </mxCell>
        <mxCell id="phbMMFh-26lDou9REZHB-29" value="Dossier (DIA : Dossier de l&#39;agent)" style="rounded=1;whiteSpace=wrap;html=1;strokeColor=#00AA9B;strokeWidth=3;arcSize=19;fontFamily=Poppins;fontSource=https%3A%2F%2Ffonts.googleapis.com%2Fcss%3Ffamily%3DPoppins;fontSize=16;fontColor=#002058;fontStyle=0;labelBackgroundColor=none;labelBorderColor=none;" parent="WIyWlLk6GJQsqaUBKTNV-1" vertex="1">
          <mxGeometry x="120" y="460" width="280" height="60" as="geometry" />
        </mxCell>
        <mxCell id="phbMMFh-26lDou9REZHB-31" value="0..n" style="text;whiteSpace=wrap;html=1;" parent="WIyWlLk6GJQsqaUBKTNV-1" vertex="1">
          <mxGeometry x="270" y="350" width="30" height="30" as="geometry" />
        </mxCell>
        <mxCell id="phbMMFh-26lDou9REZHB-32" value="1..1" style="text;whiteSpace=wrap;html=1;" parent="WIyWlLk6GJQsqaUBKTNV-1" vertex="1">
          <mxGeometry x="270" y="430" width="30" height="20" as="geometry" />
        </mxCell>
        <mxCell id="uQfEkvKlNakl6JKJITbp-0" style="edgeStyle=none;curved=1;rounded=0;orthogonalLoop=1;jettySize=auto;html=1;entryX=0.5;entryY=1;entryDx=0;entryDy=0;fontSize=12;startSize=8;endSize=8;" parent="WIyWlLk6GJQsqaUBKTNV-1" source="phbMMFh-26lDou9REZHB-33" target="phbMMFh-26lDou9REZHB-15" edge="1">
          <mxGeometry relative="1" as="geometry" />
        </mxCell>
        <mxCell id="uQfEkvKlNakl6JKJITbp-1" value="permissions CRUD sur documents de la rubrique" style="edgeLabel;html=1;align=center;verticalAlign=middle;resizable=0;points=[];fontSize=12;" parent="uQfEkvKlNakl6JKJITbp-0" vertex="1" connectable="0">
          <mxGeometry x="0.0571" y="2" relative="1" as="geometry">
            <mxPoint x="22" y="7" as="offset" />
          </mxGeometry>
        </mxCell>
        <mxCell id="-xlJssC03vAZWMdjajY_-10" style="edgeStyle=none;curved=1;rounded=0;orthogonalLoop=1;jettySize=auto;html=1;fontSize=12;startSize=8;endSize=8;" edge="1" parent="WIyWlLk6GJQsqaUBKTNV-1" source="phbMMFh-26lDou9REZHB-33" target="-xlJssC03vAZWMdjajY_-9">
          <mxGeometry relative="1" as="geometry" />
        </mxCell>
        <mxCell id="phbMMFh-26lDou9REZHB-33" value="Profil (liste d&#39;utilisateurs)" style="rounded=1;whiteSpace=wrap;html=1;strokeColor=#00AA9B;strokeWidth=3;arcSize=19;fontFamily=Poppins;fontSource=https%3A%2F%2Ffonts.googleapis.com%2Fcss%3Ffamily%3DPoppins;fontSize=16;fontColor=#002058;fontStyle=0;labelBackgroundColor=none;labelBorderColor=none;" parent="WIyWlLk6GJQsqaUBKTNV-1" vertex="1">
          <mxGeometry x="-240" y="240" width="120" height="70" as="geometry" />
        </mxCell>
        <mxCell id="phbMMFh-26lDou9REZHB-35" value="Utilisation (Type de rubrique/dossier) (contexte d&#39;utilisation métier de la rubrique)" style="rounded=1;whiteSpace=wrap;html=1;strokeColor=#00AA9B;strokeWidth=3;arcSize=19;fontFamily=Poppins;fontSource=https%3A%2F%2Ffonts.googleapis.com%2Fcss%3Ffamily%3DPoppins;fontSize=16;fontColor=#002058;fontStyle=0;labelBackgroundColor=none;labelBorderColor=none;" parent="WIyWlLk6GJQsqaUBKTNV-1" vertex="1">
          <mxGeometry x="-750" y="110" width="280" height="60" as="geometry" />
        </mxCell>
        <mxCell id="phbMMFh-26lDou9REZHB-38" value="1..1" style="text;whiteSpace=wrap;html=1;" parent="WIyWlLk6GJQsqaUBKTNV-1" vertex="1">
          <mxGeometry x="-460" y="120" width="30" height="20" as="geometry" />
        </mxCell>
        <mxCell id="phbMMFh-26lDou9REZHB-39" value="1..n" style="edgeLabel;html=1;align=center;verticalAlign=middle;resizable=0;points=[];fontSize=12;" parent="WIyWlLk6GJQsqaUBKTNV-1" vertex="1" connectable="0">
          <mxGeometry x="90" y="190" as="geometry">
            <mxPoint x="-256" y="-3" as="offset" />
          </mxGeometry>
        </mxCell>
        <mxCell id="phbMMFh-26lDou9REZHB-42" value="0..n" style="text;whiteSpace=wrap;html=1;" parent="WIyWlLk6GJQsqaUBKTNV-1" vertex="1">
          <mxGeometry x="-30" y="90" width="30" height="20" as="geometry" />
        </mxCell>
        <mxCell id="phbMMFh-26lDou9REZHB-43" value="1..1" style="text;whiteSpace=wrap;html=1;" parent="WIyWlLk6GJQsqaUBKTNV-1" vertex="1">
          <mxGeometry x="-130" y="80" width="30" height="20" as="geometry" />
        </mxCell>
        <mxCell id="phbMMFh-26lDou9REZHB-45" value="Entité métier (agent, collectivité, ...)" style="rounded=1;whiteSpace=wrap;html=1;strokeColor=#00AA9B;strokeWidth=3;arcSize=19;fontFamily=Poppins;fontSource=https%3A%2F%2Ffonts.googleapis.com%2Fcss%3Ffamily%3DPoppins;fontSize=16;fontColor=#002058;fontStyle=0;labelBackgroundColor=none;labelBorderColor=none;" parent="WIyWlLk6GJQsqaUBKTNV-1" vertex="1">
          <mxGeometry x="115" y="600" width="290" height="60" as="geometry" />
        </mxCell>
        <mxCell id="phbMMFh-26lDou9REZHB-47" value="1..1" style="text;whiteSpace=wrap;html=1;" parent="WIyWlLk6GJQsqaUBKTNV-1" vertex="1">
          <mxGeometry x="270" y="575" width="30" height="20" as="geometry" />
        </mxCell>
        <mxCell id="phbMMFh-26lDou9REZHB-48" value="1..n" style="edgeLabel;html=1;align=center;verticalAlign=middle;resizable=0;points=[];fontSize=12;" parent="WIyWlLk6GJQsqaUBKTNV-1" vertex="1" connectable="0">
          <mxGeometry x="110" y="170" as="geometry">
            <mxPoint x="173" y="366" as="offset" />
          </mxGeometry>
        </mxCell>
        <mxCell id="phbMMFh-26lDou9REZHB-50" value="1..n" style="text;whiteSpace=wrap;html=1;" parent="WIyWlLk6GJQsqaUBKTNV-1" vertex="1">
          <mxGeometry x="660" y="270" width="30" height="20" as="geometry" />
        </mxCell>
        <mxCell id="phbMMFh-26lDou9REZHB-51" value="1..n" style="text;whiteSpace=wrap;html=1;" parent="WIyWlLk6GJQsqaUBKTNV-1" vertex="1">
          <mxGeometry x="660" y="160" width="30" height="20" as="geometry" />
        </mxCell>
        <mxCell id="phbMMFh-26lDou9REZHB-52" value="Valeur par défaut" style="rounded=1;whiteSpace=wrap;html=1;strokeColor=#00AA9B;strokeWidth=3;arcSize=19;fontFamily=Poppins;fontSource=https%3A%2F%2Ffonts.googleapis.com%2Fcss%3Ffamily%3DPoppins;fontSize=16;fontColor=#002058;fontStyle=0;labelBackgroundColor=none;labelBorderColor=none;" parent="WIyWlLk6GJQsqaUBKTNV-1" vertex="1">
          <mxGeometry x="120" y="-120" width="280" height="60" as="geometry" />
        </mxCell>
        <mxCell id="phbMMFh-26lDou9REZHB-58" style="edgeStyle=none;curved=1;rounded=0;orthogonalLoop=1;jettySize=auto;html=1;entryX=0;entryY=0.5;entryDx=0;entryDy=0;fontSize=12;startSize=8;endSize=8;" parent="WIyWlLk6GJQsqaUBKTNV-1" source="phbMMFh-26lDou9REZHB-56" target="phbMMFh-26lDou9REZHB-57" edge="1">
          <mxGeometry relative="1" as="geometry" />
        </mxCell>
        <mxCell id="phbMMFh-26lDou9REZHB-60" style="edgeStyle=none;curved=1;rounded=0;orthogonalLoop=1;jettySize=auto;html=1;entryX=0;entryY=0.5;entryDx=0;entryDy=0;fontSize=12;startSize=8;endSize=8;" parent="WIyWlLk6GJQsqaUBKTNV-1" source="phbMMFh-26lDou9REZHB-56" target="phbMMFh-26lDou9REZHB-59" edge="1">
          <mxGeometry relative="1" as="geometry" />
        </mxCell>
        <mxCell id="phbMMFh-26lDou9REZHB-62" style="edgeStyle=none;curved=1;rounded=0;orthogonalLoop=1;jettySize=auto;html=1;entryX=0;entryY=0.5;entryDx=0;entryDy=0;fontSize=12;startSize=8;endSize=8;" parent="WIyWlLk6GJQsqaUBKTNV-1" source="phbMMFh-26lDou9REZHB-56" target="phbMMFh-26lDou9REZHB-61" edge="1">
          <mxGeometry relative="1" as="geometry" />
        </mxCell>
        <mxCell id="phbMMFh-26lDou9REZHB-56" value="Type de document (ex: Document RH)" style="rounded=1;whiteSpace=wrap;html=1;strokeColor=#00AA9B;strokeWidth=3;arcSize=19;fontFamily=Poppins;fontSource=https%3A%2F%2Ffonts.googleapis.com%2Fcss%3Ffamily%3DPoppins;fontSize=16;fontColor=#002058;fontStyle=0;labelBackgroundColor=none;labelBorderColor=none;" parent="WIyWlLk6GJQsqaUBKTNV-1" vertex="1">
          <mxGeometry x="-250" y="910" width="280" height="60" as="geometry" />
        </mxCell>
        <mxCell id="phbMMFh-26lDou9REZHB-57" value="Actions disponibles (Ajout manuel, impression, ...)" style="rounded=1;whiteSpace=wrap;html=1;strokeColor=#00AA9B;strokeWidth=3;arcSize=19;fontFamily=Poppins;fontSource=https%3A%2F%2Ffonts.googleapis.com%2Fcss%3Ffamily%3DPoppins;fontSize=16;fontColor=#002058;fontStyle=0;labelBackgroundColor=none;labelBorderColor=none;" parent="WIyWlLk6GJQsqaUBKTNV-1" vertex="1">
          <mxGeometry x="180" y="800" width="280" height="60" as="geometry" />
        </mxCell>
        <mxCell id="phbMMFh-26lDou9REZHB-59" value="Positions de signatures" style="rounded=1;whiteSpace=wrap;html=1;strokeColor=#00AA9B;strokeWidth=3;arcSize=19;fontFamily=Poppins;fontSource=https%3A%2F%2Ffonts.googleapis.com%2Fcss%3Ffamily%3DPoppins;fontSize=16;fontColor=#002058;fontStyle=0;labelBackgroundColor=none;labelBorderColor=none;" parent="WIyWlLk6GJQsqaUBKTNV-1" vertex="1">
          <mxGeometry x="180" y="910" width="280" height="60" as="geometry" />
        </mxCell>
        <mxCell id="phbMMFh-26lDou9REZHB-61" value="Classification (pour normalisation préfecture)" style="rounded=1;whiteSpace=wrap;html=1;strokeColor=#00AA9B;strokeWidth=3;arcSize=19;fontFamily=Poppins;fontSource=https%3A%2F%2Ffonts.googleapis.com%2Fcss%3Ffamily%3DPoppins;fontSize=16;fontColor=#002058;fontStyle=0;labelBackgroundColor=none;labelBorderColor=none;" parent="WIyWlLk6GJQsqaUBKTNV-1" vertex="1">
          <mxGeometry x="180" y="1030" width="280" height="60" as="geometry" />
        </mxCell>
        <mxCell id="phbMMFh-26lDou9REZHB-71" style="edgeStyle=none;curved=1;rounded=0;orthogonalLoop=1;jettySize=auto;html=1;fontSize=12;startSize=8;endSize=8;" parent="WIyWlLk6GJQsqaUBKTNV-1" source="phbMMFh-26lDou9REZHB-65" target="phbMMFh-26lDou9REZHB-68" edge="1">
          <mxGeometry relative="1" as="geometry" />
        </mxCell>
        <mxCell id="phbMMFh-26lDou9REZHB-72" style="edgeStyle=none;curved=1;rounded=0;orthogonalLoop=1;jettySize=auto;html=1;fontSize=12;startSize=8;endSize=8;" parent="WIyWlLk6GJQsqaUBKTNV-1" source="phbMMFh-26lDou9REZHB-65" target="phbMMFh-26lDou9REZHB-70" edge="1">
          <mxGeometry relative="1" as="geometry" />
        </mxCell>
        <mxCell id="phbMMFh-26lDou9REZHB-65" value="Profil (droits)" style="rounded=1;whiteSpace=wrap;html=1;strokeColor=#00AA9B;strokeWidth=3;arcSize=19;fontFamily=Poppins;fontSource=https%3A%2F%2Ffonts.googleapis.com%2Fcss%3Ffamily%3DPoppins;fontSize=16;fontColor=#002058;fontStyle=0;labelBackgroundColor=none;labelBorderColor=none;" parent="WIyWlLk6GJQsqaUBKTNV-1" vertex="1">
          <mxGeometry x="-10" y="1230" width="120" height="70" as="geometry" />
        </mxCell>
        <mxCell id="phbMMFh-26lDou9REZHB-67" style="edgeStyle=none;curved=1;rounded=0;orthogonalLoop=1;jettySize=auto;html=1;fontSize=12;startSize=8;endSize=8;" parent="WIyWlLk6GJQsqaUBKTNV-1" source="phbMMFh-26lDou9REZHB-66" target="phbMMFh-26lDou9REZHB-65" edge="1">
          <mxGeometry relative="1" as="geometry" />
        </mxCell>
        <mxCell id="phbMMFh-26lDou9REZHB-66" value="Utilisateur" style="rounded=1;whiteSpace=wrap;html=1;strokeColor=#00AA9B;strokeWidth=3;arcSize=19;fontFamily=Poppins;fontSource=https%3A%2F%2Ffonts.googleapis.com%2Fcss%3Ffamily%3DPoppins;fontSize=16;fontColor=#002058;fontStyle=0;labelBackgroundColor=none;labelBorderColor=none;" parent="WIyWlLk6GJQsqaUBKTNV-1" vertex="1">
          <mxGeometry x="-240" y="1230" width="120" height="70" as="geometry" />
        </mxCell>
        <mxCell id="phbMMFh-26lDou9REZHB-68" value="CRUD des docuements sur Rubrique (plan de classement)" style="rounded=1;whiteSpace=wrap;html=1;strokeColor=#00AA9B;strokeWidth=3;arcSize=15;fontFamily=Poppins;fontSource=https%3A%2F%2Ffonts.googleapis.com%2Fcss%3Ffamily%3DPoppins;fontSize=16;fontColor=#002058;fontStyle=0;labelBackgroundColor=none;labelBorderColor=none;" parent="WIyWlLk6GJQsqaUBKTNV-1" vertex="1">
          <mxGeometry x="220" y="1140" width="230" height="100" as="geometry" />
        </mxCell>
        <mxCell id="phbMMFh-26lDou9REZHB-70" value="&lt;div&gt;Actions&lt;/div&gt;&amp;nbsp;globales disponibles (ex: utiliser le moteur de recherche)" style="rounded=1;whiteSpace=wrap;html=1;strokeColor=#00AA9B;strokeWidth=3;arcSize=15;fontFamily=Poppins;fontSource=https%3A%2F%2Ffonts.googleapis.com%2Fcss%3Ffamily%3DPoppins;fontSize=16;fontColor=#002058;fontStyle=0;labelBackgroundColor=none;labelBorderColor=none;" parent="WIyWlLk6GJQsqaUBKTNV-1" vertex="1">
          <mxGeometry x="215" y="1290" width="240" height="80" as="geometry" />
        </mxCell>
        <mxCell id="phbMMFh-26lDou9REZHB-73" value="0..n" style="text;whiteSpace=wrap;html=1;" parent="WIyWlLk6GJQsqaUBKTNV-1" vertex="1">
          <mxGeometry x="-50" y="1240" width="30" height="30" as="geometry" />
        </mxCell>
        <mxCell id="C5AE95VLdBe2y1BJVzsT-0" value="Traitement PJ" style="rounded=1;whiteSpace=wrap;html=1;strokeColor=#F04641;strokeWidth=3;arcSize=15;fontFamily=Poppins;fontSource=https%3A%2F%2Ffonts.googleapis.com%2Fcss%3Ffamily%3DPoppins;fontSize=16;fontColor=#002058;fontStyle=0;labelBackgroundColor=none;labelBorderColor=none;" parent="WIyWlLk6GJQsqaUBKTNV-1" vertex="1">
          <mxGeometry x="650" y="790" width="120" height="60" as="geometry" />
        </mxCell>
        <mxCell id="C5AE95VLdBe2y1BJVzsT-1" value="Traitement découpage des arrêtés" style="rounded=1;whiteSpace=wrap;html=1;strokeColor=#F04641;strokeWidth=3;arcSize=15;fontFamily=Poppins;fontSource=https%3A%2F%2Ffonts.googleapis.com%2Fcss%3Ffamily%3DPoppins;fontSize=16;fontColor=#002058;fontStyle=0;labelBackgroundColor=none;labelBorderColor=none;" parent="WIyWlLk6GJQsqaUBKTNV-1" vertex="1">
          <mxGeometry x="650" y="890" width="120" height="60" as="geometry" />
        </mxCell>
        <mxCell id="C5AE95VLdBe2y1BJVzsT-2" value="Traitement reprises" style="rounded=1;whiteSpace=wrap;html=1;strokeColor=#F04641;strokeWidth=3;arcSize=15;fontFamily=Poppins;fontSource=https%3A%2F%2Ffonts.googleapis.com%2Fcss%3Ffamily%3DPoppins;fontSize=16;fontColor=#002058;fontStyle=0;labelBackgroundColor=none;labelBorderColor=none;" parent="WIyWlLk6GJQsqaUBKTNV-1" vertex="1">
          <mxGeometry x="650" y="985" width="120" height="60" as="geometry" />
        </mxCell>
        <mxCell id="C5AE95VLdBe2y1BJVzsT-3" value="Modifications documents word" style="rounded=1;whiteSpace=wrap;html=1;strokeColor=#F04641;strokeWidth=3;arcSize=15;fontFamily=Poppins;fontSource=https%3A%2F%2Ffonts.googleapis.com%2Fcss%3Ffamily%3DPoppins;fontSize=16;fontColor=#002058;fontStyle=0;labelBackgroundColor=none;labelBorderColor=none;" parent="WIyWlLk6GJQsqaUBKTNV-1" vertex="1">
          <mxGeometry x="650" y="1070" width="120" height="60" as="geometry" />
        </mxCell>
        <mxCell id="C5AE95VLdBe2y1BJVzsT-4" value="Edition en ligne et versionning" style="rounded=1;whiteSpace=wrap;html=1;strokeColor=#F04641;strokeWidth=3;arcSize=15;fontFamily=Poppins;fontSource=https%3A%2F%2Ffonts.googleapis.com%2Fcss%3Ffamily%3DPoppins;fontSize=16;fontColor=#002058;fontStyle=0;labelBackgroundColor=none;labelBorderColor=none;" parent="WIyWlLk6GJQsqaUBKTNV-1" vertex="1">
          <mxGeometry x="650" y="1150" width="120" height="60" as="geometry" />
        </mxCell>
        <mxCell id="C5AE95VLdBe2y1BJVzsT-9" style="edgeStyle=none;curved=1;rounded=0;orthogonalLoop=1;jettySize=auto;html=1;fontSize=12;startSize=8;endSize=8;" parent="WIyWlLk6GJQsqaUBKTNV-1" source="C5AE95VLdBe2y1BJVzsT-5" target="C5AE95VLdBe2y1BJVzsT-8" edge="1">
          <mxGeometry relative="1" as="geometry" />
        </mxCell>
        <mxCell id="C5AE95VLdBe2y1BJVzsT-5" value="Statut" style="rounded=1;whiteSpace=wrap;html=1;strokeColor=#00AA9B;strokeWidth=3;arcSize=19;fontFamily=Poppins;fontSource=https%3A%2F%2Ffonts.googleapis.com%2Fcss%3Ffamily%3DPoppins;fontSize=16;fontColor=#002058;fontStyle=0;labelBackgroundColor=none;labelBorderColor=none;" parent="WIyWlLk6GJQsqaUBKTNV-1" vertex="1">
          <mxGeometry x="490" y="450" width="280" height="60" as="geometry" />
        </mxCell>
        <mxCell id="C5AE95VLdBe2y1BJVzsT-8" value="Actions disponibles" style="rounded=1;whiteSpace=wrap;html=1;strokeColor=#00AA9B;strokeWidth=3;arcSize=19;fontFamily=Poppins;fontSource=https%3A%2F%2Ffonts.googleapis.com%2Fcss%3Ffamily%3DPoppins;fontSize=16;fontColor=#002058;fontStyle=0;labelBackgroundColor=none;labelBorderColor=none;" parent="WIyWlLk6GJQsqaUBKTNV-1" vertex="1">
          <mxGeometry x="490" y="600" width="280" height="60" as="geometry" />
        </mxCell>
        <mxCell id="C5AE95VLdBe2y1BJVzsT-10" value="1..1" style="text;whiteSpace=wrap;html=1;" parent="WIyWlLk6GJQsqaUBKTNV-1" vertex="1">
          <mxGeometry x="560" y="420" width="30" height="20" as="geometry" />
        </mxCell>
        <mxCell id="C5AE95VLdBe2y1BJVzsT-13" value="0..n" style="text;whiteSpace=wrap;html=1;" parent="WIyWlLk6GJQsqaUBKTNV-1" vertex="1">
          <mxGeometry x="390" y="350" width="30" height="30" as="geometry" />
        </mxCell>
        <mxCell id="C5AE95VLdBe2y1BJVzsT-17" value="1..n" style="text;whiteSpace=wrap;html=1;" parent="WIyWlLk6GJQsqaUBKTNV-1" vertex="1">
          <mxGeometry x="640" y="510" width="10" height="30" as="geometry" />
        </mxCell>
        <mxCell id="C5AE95VLdBe2y1BJVzsT-18" value="1..n" style="text;whiteSpace=wrap;html=1;" parent="WIyWlLk6GJQsqaUBKTNV-1" vertex="1">
          <mxGeometry x="640" y="575" width="30" height="20" as="geometry" />
        </mxCell>
        <mxCell id="C5AE95VLdBe2y1BJVzsT-19" style="edgeStyle=none;curved=1;rounded=0;orthogonalLoop=1;jettySize=auto;html=1;exitX=1;exitY=0.5;exitDx=0;exitDy=0;fontSize=12;startSize=8;endSize=8;" parent="WIyWlLk6GJQsqaUBKTNV-1" source="C5AE95VLdBe2y1BJVzsT-17" target="C5AE95VLdBe2y1BJVzsT-17" edge="1">
          <mxGeometry relative="1" as="geometry" />
        </mxCell>
        <mxCell id="uQfEkvKlNakl6JKJITbp-2" value="Actions disponibles (actuellement s&#39;applique à tout le monde et pas qu&#39;à un profil d&#39;utilisateur) (imprimer, ...)" style="rounded=1;whiteSpace=wrap;html=1;strokeColor=#00AA9B;strokeWidth=3;arcSize=19;fontFamily=Poppins;fontSource=https%3A%2F%2Ffonts.googleapis.com%2Fcss%3Ffamily%3DPoppins;fontSize=16;fontColor=#002058;fontStyle=0;labelBackgroundColor=none;labelBorderColor=none;" parent="WIyWlLk6GJQsqaUBKTNV-1" vertex="1">
          <mxGeometry x="470" y="-80" width="280" height="100" as="geometry" />
        </mxCell>
        <mxCell id="uQfEkvKlNakl6JKJITbp-7" value="Agent (id, nom, prénom, matricule, service)" style="rounded=1;whiteSpace=wrap;html=1;strokeColor=#00AA9B;strokeWidth=3;arcSize=19;fontFamily=Poppins;fontSource=https%3A%2F%2Ffonts.googleapis.com%2Fcss%3Ffamily%3DPoppins;fontSize=16;fontColor=#002058;fontStyle=0;labelBackgroundColor=none;labelBorderColor=none;" parent="WIyWlLk6GJQsqaUBKTNV-1" vertex="1">
          <mxGeometry x="-245" y="1560" width="270" height="60" as="geometry" />
        </mxCell>
        <mxCell id="uQfEkvKlNakl6JKJITbp-8" value="Un agent peut avoir plusieurs matricules (un par collectivité)&lt;br&gt;&lt;br&gt;Recherche des documents possibles sur base de l&#39;id, du nom, du prénom de l&#39;agent&lt;br&gt;&lt;br&gt;Actuellement l&#39;ensemble des metadatas de l&#39;agent sont dans Astre RH. Gecco n&#39;a que id, nom et prénom" style="text;strokeColor=none;fillColor=none;html=1;align=center;verticalAlign=middle;whiteSpace=wrap;rounded=0;fontSize=16;" parent="WIyWlLk6GJQsqaUBKTNV-1" vertex="1">
          <mxGeometry x="50" y="1570" width="170" height="30" as="geometry" />
        </mxCell>
        <mxCell id="uQfEkvKlNakl6JKJITbp-10" style="edgeStyle=none;curved=1;rounded=0;orthogonalLoop=1;jettySize=auto;html=1;fontSize=12;startSize=8;endSize=8;" parent="WIyWlLk6GJQsqaUBKTNV-1" source="uQfEkvKlNakl6JKJITbp-9" target="uQfEkvKlNakl6JKJITbp-7" edge="1">
          <mxGeometry relative="1" as="geometry" />
        </mxCell>
        <mxCell id="uQfEkvKlNakl6JKJITbp-9" value="Recherche de documents sur base de critères" style="rounded=1;whiteSpace=wrap;html=1;strokeColor=#00AA9B;strokeWidth=3;arcSize=19;fontFamily=Poppins;fontSource=https%3A%2F%2Ffonts.googleapis.com%2Fcss%3Ffamily%3DPoppins;fontSize=16;fontColor=#002058;fontStyle=0;labelBackgroundColor=none;labelBorderColor=none;" parent="WIyWlLk6GJQsqaUBKTNV-1" vertex="1">
          <mxGeometry x="-250" y="1430" width="280" height="60" as="geometry" />
        </mxCell>
        <mxCell id="uQfEkvKlNakl6JKJITbp-16" style="edgeStyle=none;curved=1;rounded=0;orthogonalLoop=1;jettySize=auto;html=1;entryX=1;entryY=0.5;entryDx=0;entryDy=0;fontSize=12;startSize=8;endSize=8;" parent="WIyWlLk6GJQsqaUBKTNV-1" source="uQfEkvKlNakl6JKJITbp-13" target="uQfEkvKlNakl6JKJITbp-15" edge="1">
          <mxGeometry relative="1" as="geometry" />
        </mxCell>
        <mxCell id="uQfEkvKlNakl6JKJITbp-13" value="Modèle (Alfresco)" style="rounded=1;whiteSpace=wrap;html=1;strokeColor=#0095db;strokeWidth=3;arcSize=15;fontFamily=Poppins;fontSource=https%3A%2F%2Ffonts.googleapis.com%2Fcss%3Ffamily%3DPoppins;fontSize=16;fontColor=#002058;fontStyle=0" parent="WIyWlLk6GJQsqaUBKTNV-1" vertex="1">
          <mxGeometry x="-70" y="460" width="120" height="60" as="geometry" />
        </mxCell>
        <mxCell id="uQfEkvKlNakl6JKJITbp-15" value="Metadonnée (Alfresco)" style="rounded=1;whiteSpace=wrap;html=1;strokeColor=#0095db;strokeWidth=3;arcSize=15;fontFamily=Poppins;fontSource=https%3A%2F%2Ffonts.googleapis.com%2Fcss%3Ffamily%3DPoppins;fontSize=16;fontColor=#002058;fontStyle=0" parent="WIyWlLk6GJQsqaUBKTNV-1" vertex="1">
          <mxGeometry x="-250" y="460" width="120" height="60" as="geometry" />
        </mxCell>
        <mxCell id="uQfEkvKlNakl6JKJITbp-17" value="Collectivité" style="rounded=1;whiteSpace=wrap;html=1;strokeColor=#00AA9B;strokeWidth=3;arcSize=15;fontFamily=Poppins;fontSource=https%3A%2F%2Ffonts.googleapis.com%2Fcss%3Ffamily%3DPoppins;fontSize=16;fontColor=#002058;fontStyle=0;labelBackgroundColor=none;labelBorderColor=none;" parent="WIyWlLk6GJQsqaUBKTNV-1" vertex="1">
          <mxGeometry x="-5" y="600" width="120" height="60" as="geometry" />
        </mxCell>
        <mxCell id="uQfEkvKlNakl6JKJITbp-18" style="edgeStyle=none;curved=1;rounded=0;orthogonalLoop=1;jettySize=auto;html=1;entryX=0.054;entryY=1.033;entryDx=0;entryDy=0;entryPerimeter=0;fontSize=12;startSize=8;endSize=8;" parent="WIyWlLk6GJQsqaUBKTNV-1" source="uQfEkvKlNakl6JKJITbp-17" target="phbMMFh-26lDou9REZHB-29" edge="1">
          <mxGeometry relative="1" as="geometry" />
        </mxCell>
        <mxCell id="uQfEkvKlNakl6JKJITbp-20" value="Plan de classement: &lt;br&gt;Collectivité -&amp;gt; Agent &amp;gt; Rubrique &amp;gt; Sous-rubrique -&amp;gt; Document" style="text;strokeColor=none;fillColor=none;html=1;align=center;verticalAlign=middle;whiteSpace=wrap;rounded=0;fontSize=16;" parent="WIyWlLk6GJQsqaUBKTNV-1" vertex="1">
          <mxGeometry x="-460" y="-120" width="340" height="125" as="geometry" />
        </mxCell>
        <mxCell id="-xlJssC03vAZWMdjajY_-0" style="edgeStyle=none;curved=1;rounded=0;orthogonalLoop=1;jettySize=auto;html=1;fontSize=12;startSize=8;endSize=8;entryX=0;entryY=0;entryDx=0;entryDy=0;" edge="1" parent="WIyWlLk6GJQsqaUBKTNV-1" source="uQfEkvKlNakl6JKJITbp-21" target="phbMMFh-26lDou9REZHB-15">
          <mxGeometry relative="1" as="geometry" />
        </mxCell>
        <mxCell id="uQfEkvKlNakl6JKJITbp-21" value="Plan de classement" style="rounded=1;whiteSpace=wrap;html=1;strokeColor=#00AA9B;strokeWidth=3;arcSize=19;fontFamily=Poppins;fontSource=https%3A%2F%2Ffonts.googleapis.com%2Fcss%3Ffamily%3DPoppins;fontSize=16;fontColor=#002058;fontStyle=0;labelBackgroundColor=none;labelBorderColor=none;" parent="WIyWlLk6GJQsqaUBKTNV-1" vertex="1">
          <mxGeometry x="-760" y="-87.5" width="280" height="60" as="geometry" />
        </mxCell>
        <mxCell id="-xlJssC03vAZWMdjajY_-1" value="1..1" style="text;whiteSpace=wrap;html=1;" vertex="1" parent="WIyWlLk6GJQsqaUBKTNV-1">
          <mxGeometry x="60" y="470" width="30" height="20" as="geometry" />
        </mxCell>
        <mxCell id="-xlJssC03vAZWMdjajY_-6" value="1..n" style="text;whiteSpace=wrap;html=1;" vertex="1" parent="WIyWlLk6GJQsqaUBKTNV-1">
          <mxGeometry x="-120" y="470" width="30" height="20" as="geometry" />
        </mxCell>
        <mxCell id="-xlJssC03vAZWMdjajY_-8" value="1..n" style="text;whiteSpace=wrap;html=1;" vertex="1" parent="WIyWlLk6GJQsqaUBKTNV-1">
          <mxGeometry x="130" y="530" width="30" height="20" as="geometry" />
        </mxCell>
        <mxCell id="-xlJssC03vAZWMdjajY_-9" value="&lt;div&gt;Actions&lt;/div&gt;&amp;nbsp;globales disponibles (ex: utiliser le moteur de recherche)" style="rounded=1;whiteSpace=wrap;html=1;strokeColor=#00AA9B;strokeWidth=3;arcSize=15;fontFamily=Poppins;fontSource=https%3A%2F%2Ffonts.googleapis.com%2Fcss%3Ffamily%3DPoppins;fontSize=16;fontColor=#002058;fontStyle=0;labelBackgroundColor=none;labelBorderColor=none;" vertex="1" parent="WIyWlLk6GJQsqaUBKTNV-1">
          <mxGeometry x="-570" y="235" width="240" height="80" as="geometry" />
        </mxCell>
        <mxCell id="-xlJssC03vAZWMdjajY_-11" value="1..n" style="text;whiteSpace=wrap;html=1;" vertex="1" parent="WIyWlLk6GJQsqaUBKTNV-1">
          <mxGeometry x="-330" y="250" width="30" height="20" as="geometry" />
        </mxCell>
        <mxCell id="-xlJssC03vAZWMdjajY_-12" value="1..n" style="text;whiteSpace=wrap;html=1;" vertex="1" parent="WIyWlLk6GJQsqaUBKTNV-1">
          <mxGeometry x="470" y="30" width="30" height="20" as="geometry" />
        </mxCell>
      </root>
    </mxGraphModel>
  </diagram>
</mxfile>
